<mxfile host="app.diagrams.net" agent="Mozilla/5.0 (Windows NT 10.0; Win64; x64) AppleWebKit/537.36 (KHTML, like Gecko) Chrome/135.0.0.0 Safari/537.36" version="26.2.10">
  <diagram id="C5RBs43oDa-KdzZeNtuy" name="Page-1">
    <mxGraphModel dx="927" dy="513" grid="1" gridSize="10" guides="1" tooltips="1" connect="1" arrows="1" fold="1" page="1" pageScale="1" pageWidth="827" pageHeight="1169" math="0" shadow="0">
      <root>
        <mxCell id="WIyWlLk6GJQsqaUBKTNV-0" />
        <mxCell id="WIyWlLk6GJQsqaUBKTNV-1" parent="WIyWlLk6GJQsqaUBKTNV-0" />
        <mxCell id="jTpu_SRhfd0ja_0kYPL4-4" style="edgeStyle=orthogonalEdgeStyle;rounded=0;orthogonalLoop=1;jettySize=auto;html=1;exitX=0.5;exitY=1;exitDx=0;exitDy=0;exitPerimeter=0;entryX=0.5;entryY=0;entryDx=0;entryDy=0;" edge="1" parent="WIyWlLk6GJQsqaUBKTNV-1" source="jTpu_SRhfd0ja_0kYPL4-2" target="jTpu_SRhfd0ja_0kYPL4-3">
          <mxGeometry relative="1" as="geometry" />
        </mxCell>
        <mxCell id="jTpu_SRhfd0ja_0kYPL4-2" value="&lt;font style=&quot;font-size: 15px;&quot;&gt;Desarrollo de la idea&amp;nbsp;&lt;/font&gt;" style="strokeWidth=2;html=1;shape=mxgraph.flowchart.start_2;whiteSpace=wrap;" vertex="1" parent="WIyWlLk6GJQsqaUBKTNV-1">
          <mxGeometry x="140" y="40" width="100" height="100" as="geometry" />
        </mxCell>
        <mxCell id="jTpu_SRhfd0ja_0kYPL4-6" style="edgeStyle=orthogonalEdgeStyle;rounded=0;orthogonalLoop=1;jettySize=auto;html=1;exitX=1;exitY=0.5;exitDx=0;exitDy=0;" edge="1" parent="WIyWlLk6GJQsqaUBKTNV-1" source="jTpu_SRhfd0ja_0kYPL4-3" target="jTpu_SRhfd0ja_0kYPL4-5">
          <mxGeometry relative="1" as="geometry" />
        </mxCell>
        <mxCell id="jTpu_SRhfd0ja_0kYPL4-3" value="&lt;br&gt;&lt;span style=&quot;font-size:12.0pt;line-height:107%;&lt;br/&gt;font-family:&amp;quot;Times New Roman&amp;quot;,serif;mso-fareast-font-family:&amp;quot;Times New Roman&amp;quot;;&lt;br/&gt;mso-ansi-language:ES-MX;mso-fareast-language:ES-MX;mso-bidi-language:AR-SA&quot;&gt;Creación&lt;br&gt;de la idea y concepto, sinopsis y estructura narrativa.&lt;/span&gt;&lt;br&gt;&lt;br&gt;&lt;div&gt;&lt;br/&gt;&lt;/div&gt;" style="rounded=1;whiteSpace=wrap;html=1;absoluteArcSize=1;arcSize=14;strokeWidth=2;align=center;" vertex="1" parent="WIyWlLk6GJQsqaUBKTNV-1">
          <mxGeometry x="120" y="190" width="140" height="140" as="geometry" />
        </mxCell>
        <mxCell id="jTpu_SRhfd0ja_0kYPL4-8" style="edgeStyle=orthogonalEdgeStyle;rounded=0;orthogonalLoop=1;jettySize=auto;html=1;exitX=1;exitY=0.5;exitDx=0;exitDy=0;entryX=0;entryY=0.5;entryDx=0;entryDy=0;" edge="1" parent="WIyWlLk6GJQsqaUBKTNV-1" source="jTpu_SRhfd0ja_0kYPL4-5" target="jTpu_SRhfd0ja_0kYPL4-7">
          <mxGeometry relative="1" as="geometry" />
        </mxCell>
        <mxCell id="jTpu_SRhfd0ja_0kYPL4-5" value="&lt;font style=&quot;font-size: 15px;&quot;&gt;Creacion del StoryBoard&lt;/font&gt;" style="rounded=1;whiteSpace=wrap;html=1;absoluteArcSize=1;arcSize=14;strokeWidth=2;" vertex="1" parent="WIyWlLk6GJQsqaUBKTNV-1">
          <mxGeometry x="320" y="210" width="110" height="100" as="geometry" />
        </mxCell>
        <mxCell id="jTpu_SRhfd0ja_0kYPL4-10" style="edgeStyle=orthogonalEdgeStyle;rounded=0;orthogonalLoop=1;jettySize=auto;html=1;exitX=1;exitY=0.5;exitDx=0;exitDy=0;" edge="1" parent="WIyWlLk6GJQsqaUBKTNV-1" source="jTpu_SRhfd0ja_0kYPL4-7" target="jTpu_SRhfd0ja_0kYPL4-9">
          <mxGeometry relative="1" as="geometry" />
        </mxCell>
        <mxCell id="jTpu_SRhfd0ja_0kYPL4-7" value="&lt;span style=&quot;line-height: 107%;&quot;&gt;&lt;font style=&quot;font-size: 15px;&quot;&gt;Dibujar&lt;br&gt;bocetos y escenas clave en IbisPaint.&lt;/font&gt;&lt;/span&gt;" style="rounded=1;whiteSpace=wrap;html=1;absoluteArcSize=1;arcSize=14;strokeWidth=2;" vertex="1" parent="WIyWlLk6GJQsqaUBKTNV-1">
          <mxGeometry x="480" y="210" width="100" height="100" as="geometry" />
        </mxCell>
        <mxCell id="jTpu_SRhfd0ja_0kYPL4-14" value="" style="edgeStyle=orthogonalEdgeStyle;rounded=0;orthogonalLoop=1;jettySize=auto;html=1;" edge="1" parent="WIyWlLk6GJQsqaUBKTNV-1" source="jTpu_SRhfd0ja_0kYPL4-9" target="jTpu_SRhfd0ja_0kYPL4-11">
          <mxGeometry relative="1" as="geometry" />
        </mxCell>
        <mxCell id="jTpu_SRhfd0ja_0kYPL4-9" value="Elaboración del guion tecnico" style="rounded=1;whiteSpace=wrap;html=1;absoluteArcSize=1;arcSize=14;strokeWidth=2;" vertex="1" parent="WIyWlLk6GJQsqaUBKTNV-1">
          <mxGeometry x="610" y="330" width="100" height="100" as="geometry" />
        </mxCell>
        <mxCell id="jTpu_SRhfd0ja_0kYPL4-16" value="" style="edgeStyle=orthogonalEdgeStyle;rounded=0;orthogonalLoop=1;jettySize=auto;html=1;" edge="1" parent="WIyWlLk6GJQsqaUBKTNV-1" source="jTpu_SRhfd0ja_0kYPL4-11" target="jTpu_SRhfd0ja_0kYPL4-15">
          <mxGeometry relative="1" as="geometry" />
        </mxCell>
        <mxCell id="jTpu_SRhfd0ja_0kYPL4-11" value="&lt;span style=&quot;font-size:12.0pt;line-height:107%;&lt;br/&gt;font-family:&amp;quot;Times New Roman&amp;quot;,serif;mso-fareast-font-family:&amp;quot;Times New Roman&amp;quot;;&lt;br/&gt;mso-ansi-language:ES-MX;mso-fareast-language:ES-MX;mso-bidi-language:AR-SA&quot;&gt;selección&lt;br/&gt;de planos y diálogos.&lt;/span&gt;" style="rounded=1;whiteSpace=wrap;html=1;absoluteArcSize=1;arcSize=14;strokeWidth=2;" vertex="1" parent="WIyWlLk6GJQsqaUBKTNV-1">
          <mxGeometry x="610" y="470" width="100" height="100" as="geometry" />
        </mxCell>
        <mxCell id="jTpu_SRhfd0ja_0kYPL4-19" style="edgeStyle=orthogonalEdgeStyle;rounded=0;orthogonalLoop=1;jettySize=auto;html=1;exitX=0;exitY=0.5;exitDx=0;exitDy=0;entryX=1;entryY=0.5;entryDx=0;entryDy=0;" edge="1" parent="WIyWlLk6GJQsqaUBKTNV-1" source="jTpu_SRhfd0ja_0kYPL4-15" target="jTpu_SRhfd0ja_0kYPL4-17">
          <mxGeometry relative="1" as="geometry" />
        </mxCell>
        <mxCell id="jTpu_SRhfd0ja_0kYPL4-15" value="&lt;font style=&quot;font-size: 15px;&quot;&gt;Selección de musica y efectos.&lt;/font&gt;" style="rounded=1;whiteSpace=wrap;html=1;absoluteArcSize=1;arcSize=14;strokeWidth=2;" vertex="1" parent="WIyWlLk6GJQsqaUBKTNV-1">
          <mxGeometry x="440" y="470" width="100" height="100" as="geometry" />
        </mxCell>
        <mxCell id="jTpu_SRhfd0ja_0kYPL4-22" style="edgeStyle=orthogonalEdgeStyle;rounded=0;orthogonalLoop=1;jettySize=auto;html=1;exitX=0.5;exitY=1;exitDx=0;exitDy=0;entryX=0.5;entryY=0;entryDx=0;entryDy=0;" edge="1" parent="WIyWlLk6GJQsqaUBKTNV-1" source="jTpu_SRhfd0ja_0kYPL4-17" target="jTpu_SRhfd0ja_0kYPL4-20">
          <mxGeometry relative="1" as="geometry" />
        </mxCell>
        <mxCell id="jTpu_SRhfd0ja_0kYPL4-17" value="&lt;span style=&quot;font-size:12.0pt;line-height:107%;&lt;br/&gt;font-family:&amp;quot;Times New Roman&amp;quot;,serif;mso-fareast-font-family:&amp;quot;Times New Roman&amp;quot;;&lt;br/&gt;mso-ansi-language:ES-MX;mso-fareast-language:ES-MX;mso-bidi-language:AR-SA&quot;&gt;Elegir&lt;br/&gt;la sonido ambiental y voces de los personajes.&lt;/span&gt;" style="rounded=1;whiteSpace=wrap;html=1;absoluteArcSize=1;arcSize=14;strokeWidth=2;" vertex="1" parent="WIyWlLk6GJQsqaUBKTNV-1">
          <mxGeometry x="260" y="460" width="120" height="120" as="geometry" />
        </mxCell>
        <mxCell id="jTpu_SRhfd0ja_0kYPL4-24" style="edgeStyle=orthogonalEdgeStyle;rounded=0;orthogonalLoop=1;jettySize=auto;html=1;exitX=1;exitY=0.5;exitDx=0;exitDy=0;entryX=0;entryY=0.5;entryDx=0;entryDy=0;" edge="1" parent="WIyWlLk6GJQsqaUBKTNV-1" source="jTpu_SRhfd0ja_0kYPL4-20" target="jTpu_SRhfd0ja_0kYPL4-23">
          <mxGeometry relative="1" as="geometry" />
        </mxCell>
        <mxCell id="jTpu_SRhfd0ja_0kYPL4-20" value="&lt;font style=&quot;font-size: 15px;&quot;&gt;Planificación del animatic.&lt;/font&gt;" style="rounded=1;whiteSpace=wrap;html=1;absoluteArcSize=1;arcSize=14;strokeWidth=2;" vertex="1" parent="WIyWlLk6GJQsqaUBKTNV-1">
          <mxGeometry x="260" y="630" width="120" height="110" as="geometry" />
        </mxCell>
        <mxCell id="jTpu_SRhfd0ja_0kYPL4-26" value="" style="edgeStyle=orthogonalEdgeStyle;rounded=0;orthogonalLoop=1;jettySize=auto;html=1;" edge="1" parent="WIyWlLk6GJQsqaUBKTNV-1" source="jTpu_SRhfd0ja_0kYPL4-23" target="jTpu_SRhfd0ja_0kYPL4-25">
          <mxGeometry relative="1" as="geometry" />
        </mxCell>
        <mxCell id="jTpu_SRhfd0ja_0kYPL4-23" value="&lt;span style=&quot;font-size:12.0pt;line-height:107%;&lt;br/&gt;font-family:&amp;quot;Times New Roman&amp;quot;,serif;mso-fareast-font-family:&amp;quot;Times New Roman&amp;quot;;&lt;br/&gt;mso-ansi-language:ES-MX;mso-fareast-language:ES-MX;mso-bidi-language:AR-SA&quot;&gt;Creación&lt;br/&gt;del animatic básico con storyboard y sonido inicial.&lt;/span&gt;" style="rounded=1;whiteSpace=wrap;html=1;absoluteArcSize=1;arcSize=14;strokeWidth=2;" vertex="1" parent="WIyWlLk6GJQsqaUBKTNV-1">
          <mxGeometry x="490" y="630" width="130" height="110" as="geometry" />
        </mxCell>
        <mxCell id="jTpu_SRhfd0ja_0kYPL4-28" value="" style="edgeStyle=orthogonalEdgeStyle;rounded=0;orthogonalLoop=1;jettySize=auto;html=1;" edge="1" parent="WIyWlLk6GJQsqaUBKTNV-1" source="jTpu_SRhfd0ja_0kYPL4-25" target="jTpu_SRhfd0ja_0kYPL4-27">
          <mxGeometry relative="1" as="geometry" />
        </mxCell>
        <mxCell id="jTpu_SRhfd0ja_0kYPL4-25" value="&lt;font style=&quot;font-size: 15px;&quot;&gt;Revisión final de todo lo hecho&amp;nbsp;&lt;/font&gt;" style="rounded=1;whiteSpace=wrap;html=1;absoluteArcSize=1;arcSize=14;strokeWidth=2;" vertex="1" parent="WIyWlLk6GJQsqaUBKTNV-1">
          <mxGeometry x="490" y="790" width="130" height="110" as="geometry" />
        </mxCell>
        <mxCell id="jTpu_SRhfd0ja_0kYPL4-27" value="&lt;font style=&quot;font-size: 14px;&quot;&gt;¿Se debe modificar, eliminar o agregar algo?&lt;/font&gt;" style="rounded=1;whiteSpace=wrap;html=1;absoluteArcSize=1;arcSize=14;strokeWidth=2;" vertex="1" parent="WIyWlLk6GJQsqaUBKTNV-1">
          <mxGeometry x="290" y="792.5" width="110" height="105" as="geometry" />
        </mxCell>
        <mxCell id="jTpu_SRhfd0ja_0kYPL4-36" value="" style="edgeStyle=orthogonalEdgeStyle;rounded=0;orthogonalLoop=1;jettySize=auto;html=1;" edge="1" parent="WIyWlLk6GJQsqaUBKTNV-1" source="jTpu_SRhfd0ja_0kYPL4-29" target="jTpu_SRhfd0ja_0kYPL4-35">
          <mxGeometry relative="1" as="geometry" />
        </mxCell>
        <mxCell id="jTpu_SRhfd0ja_0kYPL4-29" value="&lt;font style=&quot;font-size: 16px;&quot;&gt;No&lt;/font&gt;" style="strokeWidth=2;html=1;shape=mxgraph.flowchart.decision;whiteSpace=wrap;" vertex="1" parent="WIyWlLk6GJQsqaUBKTNV-1">
          <mxGeometry x="130" y="795" width="100" height="100" as="geometry" />
        </mxCell>
        <mxCell id="jTpu_SRhfd0ja_0kYPL4-34" value="" style="edgeStyle=orthogonalEdgeStyle;rounded=0;orthogonalLoop=1;jettySize=auto;html=1;" edge="1" parent="WIyWlLk6GJQsqaUBKTNV-1" source="jTpu_SRhfd0ja_0kYPL4-30" target="jTpu_SRhfd0ja_0kYPL4-33">
          <mxGeometry relative="1" as="geometry" />
        </mxCell>
        <mxCell id="jTpu_SRhfd0ja_0kYPL4-30" value="&lt;font style=&quot;font-size: 17px;&quot;&gt;Si&lt;/font&gt;" style="strokeWidth=2;html=1;shape=mxgraph.flowchart.decision;whiteSpace=wrap;" vertex="1" parent="WIyWlLk6GJQsqaUBKTNV-1">
          <mxGeometry x="295" y="950" width="100" height="100" as="geometry" />
        </mxCell>
        <mxCell id="jTpu_SRhfd0ja_0kYPL4-31" style="edgeStyle=orthogonalEdgeStyle;rounded=0;orthogonalLoop=1;jettySize=auto;html=1;exitX=0;exitY=0.5;exitDx=0;exitDy=0;entryX=1;entryY=0.5;entryDx=0;entryDy=0;entryPerimeter=0;" edge="1" parent="WIyWlLk6GJQsqaUBKTNV-1" source="jTpu_SRhfd0ja_0kYPL4-27" target="jTpu_SRhfd0ja_0kYPL4-29">
          <mxGeometry relative="1" as="geometry" />
        </mxCell>
        <mxCell id="jTpu_SRhfd0ja_0kYPL4-32" style="edgeStyle=orthogonalEdgeStyle;rounded=0;orthogonalLoop=1;jettySize=auto;html=1;exitX=0.5;exitY=1;exitDx=0;exitDy=0;entryX=0.5;entryY=0;entryDx=0;entryDy=0;entryPerimeter=0;" edge="1" parent="WIyWlLk6GJQsqaUBKTNV-1" source="jTpu_SRhfd0ja_0kYPL4-27" target="jTpu_SRhfd0ja_0kYPL4-30">
          <mxGeometry relative="1" as="geometry" />
        </mxCell>
        <mxCell id="jTpu_SRhfd0ja_0kYPL4-33" value="&lt;font style=&quot;font-size: 16px;&quot;&gt;Realizar los cambios y entregar&amp;nbsp;&lt;/font&gt;" style="rounded=1;whiteSpace=wrap;html=1;absoluteArcSize=1;arcSize=14;strokeWidth=2;" vertex="1" parent="WIyWlLk6GJQsqaUBKTNV-1">
          <mxGeometry x="450" y="950" width="100" height="100" as="geometry" />
        </mxCell>
        <mxCell id="jTpu_SRhfd0ja_0kYPL4-35" value="&lt;font style=&quot;font-size: 16px;&quot;&gt;Finalizar y entregar el proyecto&lt;/font&gt;" style="rounded=1;whiteSpace=wrap;html=1;absoluteArcSize=1;arcSize=14;strokeWidth=2;" vertex="1" parent="WIyWlLk6GJQsqaUBKTNV-1">
          <mxGeometry x="130" y="930" width="100" height="100" as="geometry" />
        </mxCell>
      </root>
    </mxGraphModel>
  </diagram>
</mxfile>
